<mxfile host="65bd71144e">
    <diagram id="Jvf93hVeLqYrtGEG2c2u" name="PÃ¡gina-1">
        <mxGraphModel dx="1002" dy="477" grid="1" gridSize="10" guides="1" tooltips="1" connect="1" arrows="1" fold="1" page="1" pageScale="1" pageWidth="827" pageHeight="1169" math="0" shadow="0">
            <root>
                <mxCell id="0"/>
                <mxCell id="1" parent="0"/>
                <mxCell id="2" value="Cliente" style="shape=umlActor;verticalLabelPosition=bottom;verticalAlign=top;html=1;" vertex="1" parent="1">
                    <mxGeometry x="100" y="230" width="30" height="60" as="geometry"/>
                </mxCell>
                <mxCell id="3" value="VISTA" style="html=1;" vertex="1" parent="1">
                    <mxGeometry x="200" y="235" width="110" height="50" as="geometry"/>
                </mxCell>
            </root>
        </mxGraphModel>
    </diagram>
</mxfile>